<svg version="1.0" xmlns="http://www.w3.org/2000/svg" viewBox="0 0 340 250" color-interpolation-filters="sRGB" style="margin:auto"><rect width="100%" height="100%" fill="none" class="background"/><g fill="#3a2b1a" class="icon-text-wrapper icon-svg-group iconsvg"><g transform="translate(140 55.627)" class="iconsvg-imagesvg"><path class="image-rect" fill="none" d="M0 0h60v71.703H0z"/><svg filter="url(#a)" width="60" height="71.703" class="image-svg-svg primary" style="overflow:visible"><svg xmlns="http://www.w3.org/2000/svg" xmlns:xlink="http://www.w3.org/1999/xlink" viewBox="14.7 10.4 68.7 82.1" enable-background="new 0 0 100 100" xml:space="preserve"><path d="m82.7 38.9-9.3-9.4V18.9c0-4.7-3.7-8.5-8.3-8.5H23.2c-4.6 0-8.5 3.9-8.5 8.5v56.6c0 4.4 3.7 7.9 8.5 7.9h1.5v1.1c0 4.5 3.7 8 8.4 8H75c4.7 0 8.4-3.5 8.4-8V40.4c-.1-.6-.3-1.1-.7-1.5zm-18.1-12 4.3 4.3 7 7h-7.2c-2.3 0-4.2-1.8-4.2-4l.1-7.3zm-39.9 1v51.2h-1.5c-2 0-4.2-1.3-4.2-3.6V18.9c0-2.2 2-4.1 4.2-4.1h41.9c2.2 0 3.9 1.8 3.9 4.1v6.2l-4.8-4.8c-.4-.5-1-.8-1.7-.8H33c-4.6.1-8.3 3.8-8.3 8.4zM79 84.6c0 2.1-1.8 3.7-4.1 3.7H33c-2.3 0-4-1.5-4-3.7V27.9c0-2.2 1.8-4 4-4h27.3v10.4c0 4.6 3.8 8.3 8.5 8.3H79v42z"/><path d="M36.4 63h28.2c.6 0 1.1-.5 1.1-1.1s-.5-1.1-1.1-1.1H36.4c-.6 0-1.1.5-1.1 1.1 0 .6.5 1.1 1.1 1.1zM72 54.3H36.4c-.6 0-1.1.5-1.1 1.1s.5 1.1 1.1 1.1H72c.6 0 1.1-.5 1.1-1.1s-.5-1.1-1.1-1.1zm-36.7-5.8c0 .6.5 1.1 1.1 1.1H72c.6 0 1.1-.5 1.1-1.1s-.5-1.1-1.1-1.1H36.4c-.6 0-1.1.5-1.1 1.1zM69 78.2H36.4c-.6 0-1.1.5-1.1 1.1s.5 1.1 1.1 1.1H69c.6 0 1.1-.5 1.1-1.1s-.5-1.1-1.1-1.1zm3-6.5H36.4c-.6 0-1.1.5-1.1 1.1s.5 1.1 1.1 1.1H72c.6 0 1.1-.5 1.1-1.1s-.5-1.1-1.1-1.1zM41.2 41.8c3.3 0 6-2.7 6-6s-2.7-6-6-6-6 2.7-6 6 2.7 6 6 6zm0-9.9c2.1 0 3.8 1.7 3.8 3.8 0 2.1-1.7 3.8-3.8 3.8s-3.8-1.7-3.8-3.8c-.1-2 1.7-3.8 3.8-3.8z"/></svg></svg><defs><filter id="a"><feColorMatrix values="0 0 0 0 0.2265625 0 0 0 0 0.16796875 0 0 0 0 0.1015625 0 0 0 1 0" class="icon-fecolormatrix"/></filter></defs></g><path d="m107.16 137.3 3.79 34.88H98.1l-.77-8.73H87.17l-3.9 8.73h-5.33l16.2-34.88h13.02Zm-11.48 7.2-6.7 14.94h7.96l-1.26-14.94Zm29.33 24.11-2.74 12.8h-11.21l6.92-32.85h8.95l.99 3.52h.33q1.98-2.09 4.42-3 2.45-.9 4.81-.9 1.92 0 3.21.57 1.29.58 2.06 1.57.77.99 1.1 2.36.33 1.37.33 2.91 0 .77-.11 2.31t-.49 3.43q-.39 1.9-1.1 3.9-.71 2.01-1.9 3.65-1.18 1.65-2.96 2.7-1.79 1.04-4.26 1.04-1.37 0-2.66-.33t-2.34-.88q-1.04-.55-1.84-1.29-.79-.74-1.18-1.51h-.33Zm3.08-1.32q1.32 0 2.2-1.4.87-1.4 1.42-3.29.55-1.9.8-3.8.25-1.89.25-2.82 0-1.1-.36-1.82-.36-.71-1.29-.71-1.04 0-1.98.74-.93.74-1.37 1.29l-2.14 10.05q.44.61 1.04 1.18.6.58 1.43.58Zm29 1.32-2.75 12.8h-11.2l6.92-32.85h8.95l.99 3.52h.33q1.98-2.09 4.42-3 2.45-.9 4.81-.9 1.92 0 3.21.57 1.29.58 2.06 1.57.77.99 1.1 2.36.33 1.37.33 2.91 0 .77-.11 2.31t-.49 3.43q-.39 1.9-1.1 3.9-.72 2.01-1.9 3.65-1.18 1.65-2.96 2.7-1.79 1.04-4.26 1.04-1.37 0-2.66-.33-1.3-.33-2.34-.88-1.04-.55-1.84-1.29t-1.18-1.51h-.33Zm3.08-1.32q1.31 0 2.19-1.4.88-1.4 1.43-3.29.55-1.9.8-3.8.24-1.89.24-2.82 0-1.1-.35-1.82-.36-.71-1.29-.71-1.05 0-1.98.74-.93.74-1.37 1.29l-2.15 10.05q.44.61 1.05 1.18.6.58 1.43.58Zm36.08-32.02-7.85 36.91h-11.21l7.8-36.91h11.26Zm13.3 13.29-5.11 23.62h-11.15l5-23.62h11.26Zm1.42-7.19q0 1.26-.52 2.19-.52.94-1.37 1.6-.85.65-1.95.98-1.1.33-2.25.33-2.2 0-3.68-1.04-1.49-1.04-1.49-3.3 0-1.2.5-2.17.49-.96 1.34-1.59.86-.63 1.98-.96 1.13-.33 2.34-.33 2.14 0 3.62 1.04 1.48 1.05 1.48 3.25Zm.72 10.87.82-3.68h4.23l.5-2.25q.71-3.3 2.08-5.58 1.38-2.28 3.27-3.7 1.9-1.43 4.31-2.06 2.42-.64 5.17-.64 1.7 0 3.62.22 1.92.22 4.01.72l-.88 4.39q-1.21-.16-2.58-.24-1.37-.09-2.2-.09-1.09 0-1.89.17-.8.16-1.4.63-.61.47-1.04 1.29-.44.82-.72 2.2l-1.04 4.94h5.76l-.71 3.68h-5.82l-4.23 19.94h-11.21l4.23-19.94h-4.28Zm22.63-3.68h11.59l1.65 16.15 8.68-16.15h5.82l-13.24 23.62q-1.98 3.46-4.01 5.33t-4.42 2.74q-2.39.88-5.27 1.02-2.89.14-6.57.14l.83-3.79q1.81 0 3.37-.06 1.57-.05 2.5-.33 1.27-.33 1.82-1.18.54-.85.54-2.5 0-1.1-.19-2.52-.19-1.43-.41-3.02l-2.69-19.45Z" data-gra="path-name" class="tp-name iconsvg-namesvg"/><path d="m80.925 192.793-.51.59c.29.31.64.55 1.05.73.4.17.84.26 1.31.26.35 0 .67-.05.95-.15.28-.09.52-.23.72-.41a1.756 1.756 0 0 0 .61-1.35c0-.25-.03-.47-.11-.65-.07-.19-.17-.36-.29-.5-.12-.14-.27-.26-.44-.36-.17-.11-.35-.2-.54-.29l-.95-.41c-.14-.05-.27-.11-.4-.17-.13-.07-.25-.14-.36-.23a.925.925 0 0 1-.26-.3.756.756 0 0 1-.1-.41c0-.31.11-.55.34-.72.23-.18.53-.27.91-.27.31 0 .59.06.84.17.25.12.48.27.68.47l.47-.55c-.24-.25-.53-.45-.87-.6-.35-.16-.72-.23-1.12-.23-.31 0-.59.04-.85.13-.25.09-.47.21-.66.37-.19.16-.34.35-.44.57-.11.22-.16.46-.16.71 0 .24.04.46.12.65.08.19.19.35.32.49.13.13.28.25.44.34.16.1.32.18.48.25l.96.42c.16.08.31.15.44.22.14.06.26.14.36.23.1.08.18.18.23.3.06.12.09.27.09.44 0 .33-.12.59-.37.79-.24.2-.59.31-1.03.31-.35 0-.69-.08-1.01-.24-.33-.15-.61-.35-.85-.6Zm8.31-1.28h-2.02l.32-1.02c.12-.38.24-.75.35-1.12.11-.37.21-.75.32-1.14h.04c.11.39.22.77.33 1.14.1.37.22.74.34 1.12Zm.22.69.63 2.05h.91l-2.27-6.72h-.96l-2.28 6.72h.87l.65-2.05Zm1.43-4.67 2.15 6.72h1l2.13-6.72h-.87l-1.08 3.63c-.12.4-.22.77-.32 1.11-.09.34-.2.71-.33 1.11h-.04c-.13-.4-.24-.77-.33-1.11-.09-.34-.2-.71-.32-1.11l-1.08-3.63Zm6.2 0v6.72h3.97v-.73h-3.12v-2.44h2.55v-.72h-2.55v-2.11h3.02v-.72Zm8.86.72v6h.86v-6h2.03v-.72h-4.92v.72Zm4.1-.72v6.72h.85v-6.72Zm2.69 0v6.72h.79v-3.7c0-.3-.01-.63-.04-.99s-.05-.7-.07-1h.04l.53 1.5 1.3 3.51h.48l1.3-3.51.54-1.5h.04c-.03.3-.05.64-.08 1-.02.36-.03.69-.03.99v3.7h.81v-6.72h-1.01l-1.29 3.61-.47 1.37h-.04l-.49-1.37-1.3-3.61Zm7.45 0v6.72h3.98v-.73h-3.13v-2.44h2.55v-.72h-2.55v-2.11h3.02v-.72Zm5.42 5.26-.51.59c.29.31.64.55 1.04.73.41.17.84.26 1.31.26.36 0 .68-.05.96-.15.28-.09.52-.23.71-.41.2-.17.35-.37.46-.6.11-.24.16-.49.16-.75 0-.25-.04-.47-.11-.65-.07-.19-.17-.36-.29-.5-.12-.14-.27-.26-.44-.36-.17-.11-.35-.2-.54-.29l-.96-.41c-.13-.05-.27-.11-.4-.17-.13-.07-.25-.14-.36-.23-.1-.09-.19-.18-.26-.3a.857.857 0 0 1-.09-.41c0-.31.11-.55.34-.72.23-.18.53-.27.91-.27.31 0 .59.06.84.17.25.12.48.27.68.47l.46-.55c-.24-.25-.53-.45-.87-.6-.34-.16-.71-.23-1.11-.23-.31 0-.59.04-.85.13s-.48.21-.67.37c-.18.16-.33.35-.44.57-.1.22-.15.46-.15.71 0 .24.04.46.12.65.08.19.19.35.32.49.13.13.27.25.44.34.16.1.32.18.48.25l.96.42.44.22c.14.06.26.14.35.23.1.08.18.18.24.3s.09.27.09.44c0 .33-.13.59-.37.79-.25.2-.59.31-1.04.31-.34 0-.68-.08-1.01-.24-.32-.15-.6-.35-.84-.6Zm7.52-5.26v6.72h2.14c.38 0 .72-.04 1.04-.12.31-.08.58-.21.8-.37.23-.17.4-.37.53-.62.12-.24.18-.53.18-.86 0-.46-.14-.83-.41-1.09-.27-.27-.65-.44-1.15-.52v-.04c.4-.1.69-.28.89-.55.19-.27.28-.58.28-.91 0-.3-.05-.55-.17-.75-.11-.21-.27-.38-.47-.51-.2-.13-.44-.23-.73-.29-.28-.06-.59-.09-.93-.09Zm1.84 2.87h-.99v-2.19h1.03c.53 0 .92.08 1.19.24.26.16.39.42.39.79 0 .38-.12.66-.37.86-.25.2-.67.3-1.25.3Zm.18 3.17h-1.17v-2.54h1.17c.59 0 1.05.1 1.36.3.31.19.47.5.47.91 0 .46-.16.8-.48 1.01-.32.22-.77.32-1.35.32Zm4.95-1.92v2.6h.86v-2.6l2.01-4.12h-.89l-.86 1.89c-.1.25-.21.49-.33.73-.11.24-.23.49-.34.74h-.04c-.12-.25-.23-.5-.33-.74s-.21-.48-.32-.73l-.87-1.89h-.91Zm5.86-4.12v6.72h.81v-3.51c0-.36-.02-.71-.04-1.06-.02-.36-.05-.7-.08-1.04h.04l.73 1.38 2.44 4.23h.88v-6.72h-.81v3.47c0 .36.01.72.04 1.08l.06 1.06h-.04l-.73-1.39-2.42-4.22Zm9.1 6.84c.43 0 .81-.08 1.17-.24.35-.17.65-.4.91-.7.25-.31.45-.68.59-1.11.14-.43.21-.92.21-1.46 0-.53-.07-1.01-.21-1.44-.14-.43-.34-.79-.59-1.09-.26-.29-.56-.52-.91-.68-.36-.16-.74-.24-1.17-.24-.42 0-.81.08-1.16.23-.35.16-.65.39-.91.68-.25.3-.45.66-.59 1.09-.14.43-.21.91-.21 1.45 0 .54.07 1.03.21 1.46.14.43.34.8.59 1.11.26.3.56.53.91.7.35.16.74.24 1.16.24Zm0-.74c-.3 0-.57-.07-.81-.2-.24-.13-.45-.32-.63-.56-.17-.24-.31-.53-.4-.87-.1-.34-.14-.72-.14-1.14 0-.42.04-.79.14-1.13.09-.33.23-.62.4-.85.18-.23.39-.41.63-.54a1.834 1.834 0 0 1 1.63 0c.24.13.45.31.62.54.18.23.31.52.41.85.09.34.14.71.14 1.13 0 .42-.05.8-.14 1.14-.1.34-.23.63-.41.87-.17.24-.38.43-.62.56-.24.13-.52.2-.82.2Zm5.52-5.38v6h.86v-6h2.02v-.72h-4.91v.72Zm7.56 0v6h.86v-6h2.02v-.72h-4.91v.72Zm5.04 3.4v2.6h.86v-2.6l2.01-4.12h-.89l-.86 1.89c-.1.25-.21.49-.32.73-.12.24-.24.49-.35.74h-.04c-.12-.25-.23-.5-.33-.74s-.21-.48-.32-.73l-.87-1.89h-.91Zm3.79-4.12v6.72h.85v-2.66h1.21c.36 0 .7-.05 1-.13.31-.09.57-.22.79-.39.22-.17.39-.38.51-.64s.18-.57.18-.92c0-.37-.06-.68-.18-.94-.12-.25-.29-.45-.51-.61-.21-.15-.47-.26-.78-.33-.31-.07-.65-.1-1.01-.1Zm1.95 3.36h-1.1v-2.67h1.1c.58 0 1.02.09 1.3.28.29.19.43.52.43 1.01 0 .47-.14.82-.42 1.05-.28.22-.72.33-1.31.33Zm3.95-3.36v6.72h.85v-6.72Zm2.69 0v6.72h.81v-3.51c0-.36-.01-.71-.03-1.06-.03-.36-.05-.7-.08-1.04h.04l.73 1.38 2.44 4.23h.88v-6.72h-.81v3.47c0 .36.01.72.03 1.08.03.37.05.72.07 1.06h-.04l-.73-1.39-2.43-4.22Zm6.24 3.36c0 .55.08 1.04.23 1.47.15.43.35.8.62 1.1.27.29.59.52.95.68.37.15.78.23 1.22.23.45 0 .86-.07 1.22-.22.36-.14.64-.33.86-.56v-2.82h-2.2v.7h1.42v1.76c-.13.12-.31.22-.52.29-.22.07-.45.11-.68.11-.37 0-.69-.07-.96-.2-.28-.13-.51-.31-.7-.55-.19-.24-.33-.53-.43-.87-.1-.34-.15-.72-.15-1.14 0-.42.06-.79.16-1.13.11-.33.26-.62.45-.85.19-.24.42-.42.69-.55.28-.12.58-.19.93-.19.34 0 .62.06.84.18.22.12.42.27.59.45l.48-.54c-.2-.21-.45-.4-.76-.57-.31-.18-.7-.26-1.17-.26-.45 0-.86.08-1.23.24-.38.16-.71.39-.98.69-.28.3-.49.66-.65 1.09-.15.44-.23.92-.23 1.46Zm9.63-.17v-2.5h1.13c.52 0 .93.08 1.21.26.28.18.42.49.42.93 0 .44-.14.77-.42.98-.28.22-.69.33-1.21.33Zm2.84 3.53h.96l-1.7-2.93c.46-.12.82-.33 1.1-.65.27-.31.41-.73.41-1.26 0-.34-.06-.64-.18-.88-.11-.24-.28-.43-.48-.58a1.96 1.96 0 0 0-.75-.32c-.29-.07-.61-.1-.95-.1h-2.1v6.72h.85v-2.84h1.22Zm2.26-6.72v6.72h3.98v-.73h-3.13v-2.44h2.55v-.72h-2.55v-2.11h3.03v-.72Zm5.4 0v6.72h.85v-2.66h1.21c.37 0 .71-.05 1.01-.13.3-.09.57-.22.78-.39.22-.17.39-.38.51-.64s.18-.57.18-.92c0-.37-.06-.68-.18-.94a1.66 1.66 0 0 0-.5-.61c-.22-.15-.48-.26-.78-.33-.31-.07-.65-.1-1.02-.1Zm1.96 3.36h-1.11v-2.67h1.11c.58 0 1.01.09 1.3.28.29.19.43.52.43 1.01 0 .47-.14.82-.43 1.05-.28.22-.71.33-1.3.33Zm3.94-3.36v6.72h3.98v-.73h-3.13v-2.44h2.55v-.72h-2.55v-2.11h3.03v-.72Zm8.26 3.98h-2.02l.32-1.02c.12-.38.24-.75.35-1.12.11-.37.21-.75.32-1.14h.04c.11.39.21.77.32 1.14.11.37.23.74.35 1.12Zm.22.69.63 2.05h.91l-2.27-6.72h-.97l-2.27 6.72h.87l.65-2.05Zm3.48-3.95v6h.86v-6h2.03v-.72h-4.92v.72Zm4.1-.72v6.72h.85v-6.72Zm4.08.72v6h.86v-6h2.03v-.72h-4.91v.72Zm4.1-.72v6.72h.85v-6.72Zm1.77 0 2.16 6.72h.99l2.13-6.72h-.87l-1.08 3.63c-.11.4-.22.77-.31 1.11-.1.34-.21.71-.33 1.11h-.04c-.13-.4-.24-.77-.34-1.11-.09-.34-.2-.71-.32-1.11l-1.07-3.63Zm6.2 0v6.72h3.98v-.73h-3.13v-2.44h2.55v-.72h-2.55v-2.11h3.02v-.72Zm5.42 5.26-.51.59c.29.31.64.55 1.04.73.41.17.84.26 1.32.26.35 0 .67-.05.95-.15.28-.09.52-.23.72-.41a1.756 1.756 0 0 0 .61-1.35c0-.25-.04-.47-.11-.65-.07-.19-.17-.36-.29-.5-.12-.14-.27-.26-.44-.36-.17-.11-.35-.2-.54-.29l-.96-.41c-.13-.05-.27-.11-.39-.17-.13-.07-.25-.14-.36-.23a.925.925 0 0 1-.26-.3.756.756 0 0 1-.1-.41c0-.31.11-.55.34-.72.23-.18.53-.27.91-.27.31 0 .59.06.84.17.25.12.48.27.68.47l.47-.55a2.64 2.64 0 0 0-.88-.6c-.34-.16-.71-.23-1.11-.23-.31 0-.59.04-.85.13-.25.09-.48.21-.66.37-.19.16-.34.35-.44.57-.11.22-.16.46-.16.71 0 .24.04.46.12.65.08.19.19.35.32.49.13.13.27.25.44.34.16.1.32.18.48.25l.96.42c.16.08.31.15.44.22.14.06.26.14.36.23.1.08.17.18.23.3s.09.27.09.44c0 .33-.12.59-.37.79-.25.2-.59.31-1.03.31-.35 0-.69-.08-1.01-.24-.33-.15-.61-.35-.85-.6Z" data-gra="path-slogan" class="tp-slogan iconsvg-slogansvg"/></g></svg>